<?xml version="1.0" standalone="no"?>
<!DOCTYPE svg PUBLIC "-//W3C//DTD SVG 20010904//EN"
 "http://www.w3.org/TR/2001/REC-SVG-20010904/DTD/svg10.dtd">
<svg version="1.0" xmlns="http://www.w3.org/2000/svg"
 width="1200.000000pt" height="1200.000000pt" viewBox="0 0 1200.000000 1200.000000"
 preserveAspectRatio="xMidYMid meet">
<metadata>
Created by potrace 1.11, written by Peter Selinger 2001-2013
</metadata>
<g transform="translate(0.000000,1200.000000) scale(0.100000,-0.100000)"
fill="#000000" stroke="none">
<path d="M4405 8526 c-290 -71 -536 -403 -624 -841 -55 -278 -54 -529 5 -794
63 -283 166 -486 328 -646 127 -126 258 -185 412 -185 236 0 451 162 600 453
100 195 158 418 173 659 29 492 -112 937 -377 1190 -156 148 -341 207 -517
164z"/>
<path d="M7361 8524 c-140 -37 -296 -158 -401 -310 -306 -442 -339 -1195 -74
-1704 151 -290 363 -450 598 -450 154 0 284 59 412 185 457 450 502 1462 89
2009 -170 225 -408 328 -624 270z"/>
<path d="M2636 4779 c-103 -24 -167 -122 -145 -221 14 -59 142 -322 235 -479
165 -280 348 -515 593 -759 315 -314 617 -530 1011 -724 384 -189 743 -297
1200 -363 180 -25 757 -25 945 0 1153 156 2133 779 2750 1747 95 150 262 473
290 562 23 72 11 122 -44 180 -66 71 -184 83 -254 25 -16 -13 -70 -110 -134
-237 -193 -384 -372 -635 -654 -919 -531 -532 -1214 -870 -1979 -978 -179 -25
-711 -25 -889 0 -412 59 -737 160 -1090 337 -329 164 -597 356 -859 614 -313
307 -522 601 -717 1010 -64 133 -80 159 -112 180 -46 29 -94 37 -147 25z"/>
</g>
</svg>
